Coordinates
version=1
nRows=26
nColumns=24
inDegrees=yes

Units are S.I. units (second, meters, Newtons, ...)
Angles are in degrees.

endheader
time	pelvis_tilt	pelvis_list	pelvis_rotation	pelvis_tx	pelvis_ty	pelvis_tz	hip_flexion_r	hip_adduction_r	hip_rotation_r	knee_angle_r	ankle_angle_r	subtalar_angle_r	mtp_angle_r	hip_flexion_l	hip_adduction_l	hip_rotation_l	knee_angle_l	ankle_angle_l	subtalar_angle_l	mtp_angle_l	lumbar_extension	lumbar_bending	lumbar_rotation
      6.85000000	      5.32509782	      0.72524647	     -0.85450862	     -0.24675970	      0.75122015	      0.15215979	     -3.94544178	      4.81065855	     11.23260126	     -7.08023809	     14.78257490	    -15.14800180	      0.00000000	     21.37798468	     -1.61416507	     -7.60124561	    -68.22153468	     -4.73185310	    -16.95502596	      0.00000000	    -23.57497179	     -1.34365498	     -3.34592165
      6.86000000	      5.20552131	      1.07568547	     -1.52161705	     -0.23541522	      0.75146939	      0.15189589	     -4.87210708	      4.29357529	     11.70419424	     -6.83083622	     15.35246960	    -15.00387337	      0.00000000	     22.31399323	     -1.43605903	     -8.09335806	    -66.05150036	     -3.00952622	    -17.14610644	      0.00000000	    -23.53993443	     -1.93638638	     -2.69366823
      6.87000000	      5.13851760	      1.36917970	     -2.15603096	     -0.22413504	      0.75155381	      0.15154563	     -5.81500790	      3.82290706	     12.10303883	     -6.62239600	     15.90389842	    -14.87945898	      0.00000000	     23.01283677	     -1.30671953	     -8.54069123	    -63.44872580	     -1.44467626	    -17.35822666	      0.00000000	    -23.59817047	     -2.45574522	     -2.08998284
      6.88000000	      5.11910586	      1.59753172	     -2.76311139	     -0.21289164	      0.75147696	      0.15112897	     -6.77093043	      3.41212381	     12.42338577	     -6.46110274	     16.44976339	    -14.77457608	      0.00000000	     23.46591175	     -1.23596222	     -8.95873939	    -60.40561967	     -0.09485527	    -17.63919188	      0.00000000	    -23.73455744	     -2.90658187	     -1.52786268
      6.89000000	      5.15365630	      1.76237326	     -3.34992827	     -0.20165614	      0.75126215	      0.15063133	     -7.75758626	      3.05699159	     12.66604470	     -6.33838907	     16.97897349	    -14.66317207	      0.00000000	     23.65335023	     -1.20094195	     -9.34173499	    -56.91519989	      1.01349531	    -17.99425652	      0.00000000	    -23.96068528	     -3.28427123	     -0.99628254
      6.90000000	      5.24990637	      1.85267345	     -3.89176073	     -0.19039810	      0.75092914	      0.15002962	     -8.79902345	      2.77181847	     12.77064339	     -6.23723106	     17.45927800	    -14.51244417	      0.00000000	     23.55859800	     -1.17878908	     -9.63545455	    -52.97149973	      1.83512549	    -18.45391999	      0.00000000	    -24.27972012	     -3.56906078	     -0.53093131
      6.91000000	      5.33091065	      1.85824156	     -4.42222404	     -0.17908218	      0.75038047	      0.14939484	     -9.81254425	      2.57416757	     12.77417974	     -6.16741461	     17.96211021	    -14.36034035	      0.00000000	     23.26386146	     -1.21578299	     -9.89707459	    -48.60281466	      2.37815143	    -18.94643409	      0.00000000	    -24.58514688	     -3.76982170	     -0.08244254
      6.92000000	      5.40138981	      1.77421717	     -4.92270594	     -0.16768074	      0.74964018	      0.14870572	    -10.82215278	      2.46983583	     12.68262802	     -6.11446668	     18.43622775	    -14.15244342	      0.00000000	     22.75286669	     -1.27516863	    -10.03379651	    -43.80579869	      2.69851472	    -19.34196113	      0.00000000	    -24.88291650	     -3.87151407	      0.35223211
      6.93000000	      5.43694630	      1.60561088	     -5.38950019	     -0.15612632	      0.74867808	      0.14796430	    -11.82203652	      2.44928106	     12.41962715	     -6.04891210	     18.95254327	    -13.82040641	      0.00000000	     22.04217195	     -1.34506134	     -9.99625934	    -38.59430252	      2.79862460	    -19.61966362	      0.00000000	    -25.12417613	     -3.87927644	      0.80220352
      6.94000000	      5.46160668	      1.32179708	     -5.82590452	     -0.14437092	      0.74749876	      0.14722753	    -12.89888552	      2.54495092	     12.27147665	     -5.89817111	     19.26523142	    -13.71908939	      0.00000000	     21.12350450	     -1.50721470	     -9.84755856	    -33.06145328	      3.05284142	    -19.23625632	      0.00000000	    -25.33258882	     -3.76667125	      1.24347498
      6.95000000	      5.46962012	      0.92258907	     -6.19939886	     -0.13235324	      0.74609226	      0.14643061	    -14.03646583	      2.75031853	     12.01793006	     -5.68288652	     19.52401554	    -13.57118162	      0.00000000	     19.99494104	     -1.69639228	     -9.30825891	    -27.22278172	      3.15342165	    -18.73048162	      0.00000000	    -25.48530438	     -3.52147196	      1.67857857
      6.96000000	      5.40223866	      0.42663011	     -6.53283401	     -0.12002447	      0.74438344	      0.14554288	    -15.12223821	      3.04172168	     11.56961241	     -5.49491440	     19.88070992	    -13.10824508	      0.00000000	     18.69092259	     -1.89881974	     -8.12322054	    -21.08728642	      2.78339184	    -18.71718853	      0.00000000	    -25.50142165	     -3.14236473	      2.17103727
      6.97000000	      5.28332377	     -0.20219742	     -6.83402429	     -0.10732149	      0.74234810	      0.14466971	    -16.24565077	      3.45616256	     11.29630860	     -5.26062726	     20.18113548	    -12.69629003	      0.00000000	     17.27598379	     -2.30581828	     -6.49547122	    -14.94275238	      2.35756394	    -18.59137130	      0.00000000	    -25.38846688	     -2.61629345	      2.69401589
      6.98000000	      5.09618921	     -0.97709373	     -7.11626884	     -0.09425521	      0.73995503	      0.14380916	    -17.35814914	      3.99925836	     11.19879819	     -5.03803494	     20.39742645	    -12.33551623	      0.00000000	     15.86469307	     -2.99969940	     -4.44810293	     -9.08751024	      1.79450202	    -18.70959333	      0.00000000	    -25.13305060	     -1.92388500	      3.28921867
      6.99000000	      4.87290083	     -1.78450299	     -7.35089324	     -0.08085816	      0.73731724	      0.14294461	    -18.47341699	      4.55379231	     11.28552159	     -4.83335717	     20.51071839	    -12.07857463	      0.00000000	     14.72581507	     -3.92321363	     -2.95993132	     -4.11184398	      1.81821164	    -17.82286524	      0.00000000	    -24.77072586	     -1.18001114	      3.86503587
      7.00000000	      4.55892533	     -2.54512162	     -7.55561471	     -0.06725782	      0.73451396	      0.14199043	    -19.39098117	      5.05194238	     11.52439331	     -4.86598099	     20.66634886	    -11.80766911	      0.00000000	     13.86919274	     -4.87022144	     -1.55663320	      0.04120664	      1.63302374	    -17.40045032	      0.00000000	    -24.25864854	     -0.44994928	      4.38738062
      7.01000000	      4.17391650	     -3.08354339	     -7.71046068	     -0.05345428	      0.73173892	      0.14088415	    -20.15477488	      5.31011482	     11.85860894	     -5.02139107	     20.75467946	    -11.55612173	      0.00000000	     13.42085761	     -5.56813534	     -0.88237096	      3.09936879	      1.76878306	    -16.44267116	      0.00000000	    -23.59408343	      0.07747748	      4.81889288
      7.02000000	      3.91908185	     -3.30431045	     -7.80015338	     -0.03948811	      0.72930410	      0.13954962	    -20.88669865	      5.22416679	     12.18606851	     -5.42709251	     20.78416129	    -11.33512670	      0.00000000	     13.01136509	     -5.81743779	     -0.50054450	      5.29114365	      1.63675493	    -15.78083281	      0.00000000	    -23.01286674	      0.28612957	      5.02603701
      7.03000000	      3.77847725	     -3.20425656	     -7.78295803	     -0.02538565	      0.72723504	      0.13796984	    -21.54181539	      4.83215249	     12.40159395	     -6.11695962	     20.69832716	    -11.13205990	      0.00000000	     12.54609012	     -5.64140308	      0.40308012	      6.77157328	      0.61385882	    -16.59886750	      0.00000000	    -22.50063036	      0.16447488	      4.99592791
      7.04000000	      3.71322806	     -2.82919596	     -7.63699004	     -0.01123597	      0.72558453	      0.13612703	    -22.01149450	      4.22824401	     12.44392570	     -7.21072320	     20.48840652	    -11.00831775	      0.00000000	     12.10513371	     -5.10716692	      1.78349686	      7.49521865	     -1.21544004	    -18.59894582	      0.00000000	    -22.04102456	     -0.21333699	      4.75268099
      7.05000000	      3.78180121	     -2.16961426	     -7.32541079	      0.00293734	      0.72448021	      0.13402372	    -22.33421793	      3.43380308	     12.20885743	     -8.75572043	     20.07270497	    -10.93086144	      0.00000000	     11.64281620	     -4.20038400	      3.61275813	      7.49965151	     -3.77748366	    -21.56244098	      0.00000000	    -21.71243068	     -0.86787437	      4.25649305
      7.06000000	      3.97980386	     -1.24015940	     -6.86690281	      0.01707113	      0.72400493	      0.13171275	    -22.45399426	      2.47748515	     11.62097584	    -10.84651256	     19.33632071	    -10.88212813	      0.00000000	     11.19633677	     -2.92395602	      5.55666181	      6.81944027	     -6.68161036	    -24.84561733	      0.00000000	    -21.54165395	     -1.79317179	      3.56623971
      7.07000000	      4.25420387	     -0.08049027	     -6.20678758	      0.03109146	      0.72413195	      0.12918784	    -22.30624342	      1.43688097	     10.66813038	    -13.51330997	     18.27747261	    -10.92268271	      0.00000000	     10.90296522	     -1.28584677	      7.24487358	      5.43350053	     -9.34414849	    -27.61555750	      0.00000000	    -21.50840457	     -2.92311887	      2.64166480
      7.08000000	      4.61208976	      1.31544342	     -5.44050464	      0.04498111	      0.72492106	      0.12663230	    -21.93858265	      0.27844671	      9.63263540	    -16.68683212	     16.45566830	    -11.44800946	      0.00000000	     10.81498916	      0.74169428	      7.61091492	      3.33699424	    -10.19893083	    -27.95367698	      0.00000000	    -21.63401590	     -4.30942509	      1.62044564
      7.09000000	      4.93179163	      2.71813374	     -4.56716139	      0.05868229	      0.72602578	      0.12402496	    -21.09783451	     -0.83136514	      8.11922036	    -20.56688413	     14.45565583	    -11.50919442	      0.00000000	     10.74409417	      2.75516989	      8.15522566	      1.11753995	    -10.95711568	    -28.74189874	      0.00000000	    -21.81331930	     -5.64927205	      0.55711972
      7.10000000	      5.27635928	      4.09085340	     -3.63578090	      0.07217267	      0.72754157	      0.12152660	    -20.03942002	     -1.86554822	      6.70072243	    -24.77612972	     11.63441738	    -11.99024510	      0.00000000	     10.76981504	      4.73484142	      7.50806550	     -1.38041573	     -9.92893948	    -27.35984525	      0.00000000	    -22.12844308	     -6.94704304	     -0.45872889
